<svg width="282" height="75" viewBox="0 0 282 75" fill="none" xmlns="http://www.w3.org/2000/svg">
<g clip-path="url(#clip0)">
<path d="M15.3869 8.45401C3.55111 13.6602 -2.57261 26.8561 1.02957 39.2788C2.00731 42.6808 3.13943 46.0829 4.37447 49.5365C5.6095 52.9901 6.94746 56.3406 8.38833 59.588C13.5858 71.4437 26.7595 77.6293 39.2128 73.9695C42.6091 72.9901 46.0055 71.8561 49.4533 70.619C52.9011 69.3819 56.246 68.0416 59.488 66.5983C71.3237 61.3922 77.4989 48.1963 73.8453 35.7221C72.8675 32.32 71.7354 28.9179 70.5004 25.4643C69.2653 22.0107 67.9274 18.6602 66.4865 15.4128C61.2891 3.55711 48.0639 -2.57691 35.6621 1.03133C32.2657 2.01072 28.8694 3.14474 25.4215 4.38185C21.9737 5.61896 18.6288 7.01072 15.3869 8.45401Z" fill="#5B4293"/>
<path d="M34.2722 60.567L29.3835 62.3711C27.4281 63.0928 25.2153 62.0619 24.5463 60.1031L16.8788 38.9691L25.3182 35.8763L34.2722 60.567ZM48.681 55.3608L40.1901 58.4536L31.2361 33.7113L39.727 30.6186L48.681 55.3608ZM59.5905 51.3918L54.7018 53.1959L45.6963 28.4536L54.1872 25.3608L61.8547 46.4949C62.5751 48.4536 61.5459 50.6701 59.5905 51.3918ZM52.3346 19.2268L14.3058 33.0928L12.7105 28.6598C11.9901 26.701 13.0193 24.4845 14.9748 23.8144L45.8507 12.5773C47.8062 11.8557 50.0189 12.8866 50.6879 14.8454L52.3346 19.2268Z" fill="#8DC046"/>
<path d="M86.4011 16.598H94.0686V44.8969H97.5679V16.598H105.235V13.299H86.4011V16.598Z" fill="#5B4293"/>
<path d="M126.54 22.3196C126.54 19.433 125.562 17.165 123.658 15.5155C121.96 14.0206 119.284 13.299 115.682 13.299H109.97V44.9485H113.469V31.1856H116.557C119.901 31.1856 122.423 30.3093 124.07 28.6083C125.716 26.8557 126.54 24.7423 126.54 22.3196ZM121.291 26.3402C120.107 27.3711 118.461 27.8351 116.402 27.8351H113.52V16.598H116.145C120.776 16.598 123.092 18.4536 123.092 22.1134C123.04 23.9175 122.474 25.3093 121.291 26.3402Z" fill="#5B4293"/>
<path d="M123.04 44.8969H126.9L130.759 35.8763H144.293L148.153 44.8969H151.704L137.552 11.7526L123.04 44.8969ZM132.149 32.5773L137.501 20.0516L142.904 32.5773H132.149Z" fill="#5B4293"/>
<path d="M180.727 41.5979V13.299H161.481V29.0206C161.481 32.6289 161.121 35.4124 160.349 37.3196C159.834 38.6083 159.165 39.6392 158.239 40.4124C157.364 41.2371 156.386 41.5979 155.306 41.5979V44.8969H186.696L184.278 41.5979H180.727ZM177.228 41.5979H161.481C162.562 40.5155 163.334 39.2784 163.9 37.8351C164.671 35.8248 165.032 32.8866 165.032 29.0206V16.598H177.228V41.5979Z" fill="#5B4293"/>
<path d="M254.366 13.299H250.867V44.9485H254.366V13.299Z" fill="#5B4293"/>
<path d="M271.142 13.299C267.591 13.299 264.967 14.2268 263.269 16.134C261.828 17.732 261.107 19.8454 261.107 22.4227C261.107 25.2577 262.034 27.3711 263.835 28.866C265.224 30 266.974 30.6186 269.135 30.8763L259.872 44.8969H264.143L275.156 27.9382H273.149H271.348C269.238 27.9382 267.643 27.4742 266.511 26.5979C265.327 25.6186 264.709 24.1753 264.709 22.3196C264.709 20.6701 265.224 19.3299 266.202 18.2474C267.282 17.165 269.084 16.598 271.605 16.598H272.274H278.501V44.8969H282V13.299H271.142Z" fill="#5B4293"/>
<path d="M209.545 41.5979H198.789C194.518 41.5979 191.07 38.1443 191.07 33.866V13.2474H187.571V34.7423C187.571 40.3093 192.1 44.8454 197.657 44.8454H213.044V41.5464V13.299H209.545V41.5979Z" fill="#5B4293"/>
<path d="M243.251 13.299H239.751V41.5979H221.277V13.299H217.778V41.5979V44.8969H242.427H247.059V41.3918H243.251V13.299Z" fill="#5B4293"/>
<path d="M116.042 61.5464L113.263 57.5258L112.08 58.7629V61.5464H110.124V52.6289H112.08V56.598L115.63 52.6289H118.049L114.601 56.1856L118.461 61.5464H116.042Z" fill="#8DC046"/>
<path d="M121.6 53.8145C122.217 52.8351 123.349 52.3712 124.481 52.3712C126.951 52.3712 128.547 54.2268 128.547 57.1134C128.547 59.9485 127.003 61.7526 124.584 61.7526C123.401 61.7526 122.372 61.3402 121.703 60.3608V64.8454H119.747V52.6289H121.6V53.8145ZM121.6 57.1134C121.6 59.0722 122.526 60.2062 124.121 60.2062C125.613 60.2062 126.54 59.0206 126.54 57.1134C126.54 55.1547 125.614 53.9691 124.07 53.9691C122.526 53.9691 121.6 55.1547 121.6 57.1134Z" fill="#8DC046"/>
<path d="M134.516 61.8557C131.789 61.8557 130.142 59.8454 130.142 57.2165C130.142 54.433 131.943 52.3712 134.465 52.3712C137.089 52.3712 138.684 54.2784 138.684 57.3712V57.5773H132.097C132.149 59.3815 133.024 60.4124 134.568 60.4124C135.648 60.4124 136.317 59.9485 136.677 58.7629H138.581C138.118 60.7217 136.523 61.8557 134.516 61.8557ZM134.465 53.866C133.178 53.866 132.355 54.6907 132.149 56.2887H136.729C136.626 54.7938 135.751 53.866 134.465 53.866Z" fill="#8DC046"/>
<path d="M147.638 64.3815V61.5464H141.309V64.3815H139.456V60H140.588C141.257 58.4536 141.617 56.5979 141.617 53.6598V52.6804H148.307V60.0516H149.491V64.433H147.638V64.3815ZM146.352 54.1753H143.47V54.7938C143.47 56.8557 142.904 59.1753 142.544 60.0516H146.352V54.1753Z" fill="#8DC046"/>
<path d="M151.035 61.5464V52.6289H152.99V59.1237H153.042L156.386 52.6289H158.857V61.5464H156.901V55.0516H156.85L153.505 61.5464H151.035Z" fill="#8DC046"/>
<path d="M165.238 54.1753V61.5464H163.282V54.1753H160.349V52.6289H168.171V54.1753H165.238Z" fill="#8DC046"/>
<path d="M169.663 61.5464V52.6289H171.619V56.134H175.53V52.6289H177.485V61.5464H175.53V57.6804H171.619V61.5464H169.663Z" fill="#8DC046"/>
<path d="M179.904 61.5464V52.6289H181.859V59.1237H181.911L185.256 52.6289H187.726V61.5464H185.77V55.0516H185.719L182.374 61.5464H179.904Z" fill="#8DC046"/>
<path d="M190.196 61.5464V52.6289H192.151V59.1237H192.202L195.547 52.6289H198.017V61.5464H196.062V55.0516H196.011L192.666 61.5464H190.196ZM194.107 51.3918C192.357 51.3918 191.431 50.6186 191.276 48.9691H192.254C192.46 49.8454 193.026 50.3093 194.107 50.3093C195.187 50.3093 195.702 49.8969 195.959 48.9691H196.937C196.731 50.6186 195.856 51.3918 194.107 51.3918Z" fill="#8DC046"/>
<path d="M209.544 61.8041C206.817 61.8041 205.17 59.8969 205.17 57.2165C205.17 54.2784 206.92 52.3712 209.596 52.3712C211.86 52.3712 213.353 53.5567 213.558 55.6186H211.603C211.397 54.4846 210.677 53.866 209.596 53.866C208.052 53.866 207.126 55.0516 207.126 57.0619C207.126 59.0206 208.001 60.2062 209.493 60.2062C210.677 60.2062 211.448 59.4846 211.654 58.1444H213.61C213.404 60.4124 211.809 61.8041 209.544 61.8041Z" fill="#8DC046"/>
<path d="M219.476 61.8557C216.749 61.8557 215.102 59.8454 215.102 57.2165C215.102 54.433 216.903 52.3712 219.425 52.3712C222.049 52.3712 223.645 54.2784 223.645 57.3712V57.5773H217.058C217.109 59.3815 217.984 60.4124 219.528 60.4124C220.608 60.4124 221.277 59.9485 221.638 58.7629H223.542C223.078 60.7217 221.483 61.8557 219.476 61.8557ZM219.373 53.866C218.087 53.866 217.263 54.6907 217.058 56.2887H221.638C221.535 54.7938 220.66 53.866 219.373 53.866Z" fill="#8DC046"/>
<path d="M227.35 53.8145C227.967 52.8351 229.099 52.3712 230.231 52.3712C232.701 52.3712 234.297 54.2268 234.297 57.1134C234.297 59.9485 232.753 61.7526 230.334 61.7526C229.151 61.7526 228.122 61.3402 227.453 60.3608V64.8454H225.497V52.6289H227.35V53.8145ZM227.401 57.1134C227.401 59.0722 228.327 60.2062 229.923 60.2062C231.415 60.2062 232.341 59.0206 232.341 57.1134C232.341 55.1547 231.415 53.9691 229.871 53.9691C228.327 53.9691 227.401 55.1547 227.401 57.1134Z" fill="#8DC046"/>
<path d="M241.038 61.5464H236.355V52.6289H241.295C242.942 52.6289 243.92 53.4021 243.92 54.7938C243.92 55.7732 243.508 56.2887 242.633 56.701V56.7526C243.765 57.0619 244.331 57.8351 244.331 59.0722C244.331 60.6701 243.148 61.5464 241.038 61.5464ZM238.362 54.1237V56.1856H240.884C241.604 56.1856 242.016 55.8248 242.016 55.1031C242.016 54.3815 241.655 54.1237 240.832 54.1237H238.362ZM238.362 57.6289V60.1031H241.089C241.964 60.1031 242.427 59.6907 242.427 58.9175C242.427 58.1443 241.964 57.6804 241.089 57.6804H238.362V57.6289Z" fill="#8DC046"/>
<path d="M248.345 51.134H246.39V49.1753H248.345V51.134ZM248.345 61.5464H246.39V52.6289H248.345V61.5464Z" fill="#8DC046"/>
<path d="M254.829 61.8041C252.102 61.8041 250.455 59.8969 250.455 57.2165C250.455 54.2784 252.205 52.3712 254.881 52.3712C257.145 52.3712 258.637 53.5567 258.843 55.6186H256.888C256.682 54.4846 255.961 53.866 254.881 53.866C253.337 53.866 252.411 55.0516 252.411 57.0619C252.411 59.0206 253.285 60.2062 254.778 60.2062C255.961 60.2062 256.733 59.4846 256.939 58.1444H258.894C258.637 60.4124 257.042 61.8041 254.829 61.8041Z" fill="#8DC046"/>
</g>
<defs>
<clipPath id="clip0">
<rect width="282" height="75" fill="white"/>
</clipPath>
</defs>
</svg>
